<?xml version="1.0" encoding="utf-8"?>
<!-- Generator: Adobe Illustrator 22.1.0, SVG Export Plug-In . SVG Version: 6.00 Build 0)  -->
<svg version="1.1" id="Layer_1" xmlns="http://www.w3.org/2000/svg" xmlns:xlink="http://www.w3.org/1999/xlink" x="0px" y="0px"
	 viewBox="0 0 19.9 20" style="enable-background:new 0 0 19.9 20;" xml:space="preserve">
<style type="text/css">
	.st0{fill:url(#path1948_1_);}
	.st1{fill:url(#path1950_1_);}
</style>
<g>
	
		<linearGradient id="path1948_1_" gradientUnits="userSpaceOnUse" x1="795.3595" y1="2187.7878" x2="814.8016" y2="2204.5151" gradientTransform="matrix(0.5625 0 0 0.568 -447.8449 -1242.09)">
		<stop  offset="0" style="stop-color:#5B9ED1"/>
		<stop  offset="1" style="stop-color:#306A98"/>
	</linearGradient>
	<path id="path1948" class="st0" d="M9.8,0C9,0,8.2,0.1,7.5,0.2c-2,0.4-2.4,1.1-2.4,2.5v1.8h4.8v0.6H5.1H3.3c-1.4,0-2.6,0.9-3,2.4
		c-0.5,1.8-0.5,3,0,4.9c0.4,1.4,1.2,2.4,2.6,2.4h1.7v-2.2c0-1.6,1.4-3,3-3h4.8c1.4,0,2.4-1.1,2.4-2.4V2.7c0-1.3-1.1-2.3-2.4-2.5
		C11.5,0.1,10.7,0,9.8,0z M7.3,1.5c0.5,0,0.9,0.4,0.9,0.9S7.8,3.3,7.3,3.3S6.4,2.9,6.4,2.4C6.4,1.9,6.8,1.5,7.3,1.5z"/>
	
		<linearGradient id="path1950_1_" gradientUnits="userSpaceOnUse" x1="822.3318" y1="2214.6309" x2="815.3891" y2="2204.8079" gradientTransform="matrix(0.5625 0 0 0.568 -447.8449 -1242.09)">
		<stop  offset="0" style="stop-color:#FFD43C"/>
		<stop  offset="1" style="stop-color:#FDE774"/>
	</linearGradient>
	<path id="path1950" class="st1" d="M15.3,5.1v2.1c0,1.7-1.4,3.1-3,3.1H7.6c-1.3,0-2.4,1.1-2.4,2.4v4.6c0,1.3,1.1,2.1,2.4,2.4
		c1.5,0.5,3,0.5,4.8,0c1.2-0.4,2.4-1.1,2.4-2.4v-1.8H10v-0.6h4.8h2.4c1.4,0,1.9-1,2.4-2.4c0.5-1.5,0.5-3,0-4.9
		c-0.4-1.4-1-2.4-2.4-2.4L15.3,5.1L15.3,5.1z M12.6,16.6c0.5,0,0.9,0.4,0.9,0.9c0,0.5-0.4,0.9-0.9,0.9s-0.9-0.4-0.9-0.9
		C11.7,17,12.1,16.6,12.6,16.6z"/>
</g>
</svg>
